<mxfile host="app.diagrams.net" modified="2021-02-03T11:48:24.054Z" agent="5.0 (Windows NT 10.0; Win64; x64) AppleWebKit/537.36 (KHTML, like Gecko) Chrome/88.0.4324.104 Safari/537.36" etag="VOfgCcOYnR0tjYVFGj_c" version="13.7.7" type="github">
  <diagram id="C5RBs43oDa-KdzZeNtuy" name="Page-1">
    <mxGraphModel dx="1422" dy="762" grid="1" gridSize="10" guides="1" tooltips="1" connect="1" arrows="1" fold="1" page="1" pageScale="1" pageWidth="827" pageHeight="1169" math="0" shadow="0">
      <root>
        <mxCell id="WIyWlLk6GJQsqaUBKTNV-0" />
        <mxCell id="WIyWlLk6GJQsqaUBKTNV-1" parent="WIyWlLk6GJQsqaUBKTNV-0" />
        <mxCell id="UpVqOsW7ISQ1hBNyode8-5" style="edgeStyle=orthogonalEdgeStyle;rounded=0;orthogonalLoop=1;jettySize=auto;html=1;entryX=0.5;entryY=0;entryDx=0;entryDy=0;" edge="1" parent="WIyWlLk6GJQsqaUBKTNV-1" source="WIyWlLk6GJQsqaUBKTNV-3" target="UpVqOsW7ISQ1hBNyode8-2">
          <mxGeometry relative="1" as="geometry" />
        </mxCell>
        <mxCell id="WIyWlLk6GJQsqaUBKTNV-3" value="Nhập dữ liệu" style="rounded=1;whiteSpace=wrap;html=1;fontSize=12;glass=0;strokeWidth=1;shadow=0;" parent="WIyWlLk6GJQsqaUBKTNV-1" vertex="1">
          <mxGeometry x="300" y="210" width="120" height="40" as="geometry" />
        </mxCell>
        <mxCell id="UpVqOsW7ISQ1hBNyode8-4" style="edgeStyle=orthogonalEdgeStyle;rounded=0;orthogonalLoop=1;jettySize=auto;html=1;entryX=1;entryY=0.5;entryDx=0;entryDy=0;" edge="1" parent="WIyWlLk6GJQsqaUBKTNV-1" source="UpVqOsW7ISQ1hBNyode8-2" target="WIyWlLk6GJQsqaUBKTNV-3">
          <mxGeometry relative="1" as="geometry">
            <Array as="points">
              <mxPoint x="440" y="320" />
              <mxPoint x="440" y="230" />
            </Array>
          </mxGeometry>
        </mxCell>
        <mxCell id="UpVqOsW7ISQ1hBNyode8-9" style="edgeStyle=orthogonalEdgeStyle;rounded=0;orthogonalLoop=1;jettySize=auto;html=1;entryX=0.5;entryY=0;entryDx=0;entryDy=0;" edge="1" parent="WIyWlLk6GJQsqaUBKTNV-1" source="UpVqOsW7ISQ1hBNyode8-2" target="UpVqOsW7ISQ1hBNyode8-8">
          <mxGeometry relative="1" as="geometry" />
        </mxCell>
        <mxCell id="UpVqOsW7ISQ1hBNyode8-2" value="Kiểm tra dữ liệu đám mây điểm" style="rounded=1;whiteSpace=wrap;html=1;fontSize=12;glass=0;strokeWidth=1;shadow=0;" vertex="1" parent="WIyWlLk6GJQsqaUBKTNV-1">
          <mxGeometry x="300" y="300" width="120" height="40" as="geometry" />
        </mxCell>
        <mxCell id="UpVqOsW7ISQ1hBNyode8-6" value="Sai" style="text;html=1;align=center;verticalAlign=middle;resizable=0;points=[];autosize=1;" vertex="1" parent="WIyWlLk6GJQsqaUBKTNV-1">
          <mxGeometry x="465" y="270" width="30" height="20" as="geometry" />
        </mxCell>
        <mxCell id="UpVqOsW7ISQ1hBNyode8-15" style="edgeStyle=orthogonalEdgeStyle;rounded=0;orthogonalLoop=1;jettySize=auto;html=1;entryX=0.5;entryY=0;entryDx=0;entryDy=0;" edge="1" parent="WIyWlLk6GJQsqaUBKTNV-1" target="UpVqOsW7ISQ1hBNyode8-14">
          <mxGeometry relative="1" as="geometry">
            <mxPoint x="360" y="430" as="sourcePoint" />
          </mxGeometry>
        </mxCell>
        <mxCell id="UpVqOsW7ISQ1hBNyode8-16" style="edgeStyle=orthogonalEdgeStyle;rounded=0;orthogonalLoop=1;jettySize=auto;html=1;entryX=0;entryY=0.5;entryDx=0;entryDy=0;" edge="1" parent="WIyWlLk6GJQsqaUBKTNV-1" source="UpVqOsW7ISQ1hBNyode8-8" target="WIyWlLk6GJQsqaUBKTNV-3">
          <mxGeometry relative="1" as="geometry">
            <Array as="points">
              <mxPoint x="230" y="420" />
              <mxPoint x="230" y="230" />
            </Array>
          </mxGeometry>
        </mxCell>
        <mxCell id="UpVqOsW7ISQ1hBNyode8-8" value="Kiểm tra số lượng điểm" style="rounded=1;whiteSpace=wrap;html=1;fontSize=12;glass=0;strokeWidth=1;shadow=0;" vertex="1" parent="WIyWlLk6GJQsqaUBKTNV-1">
          <mxGeometry x="300" y="400" width="120" height="40" as="geometry" />
        </mxCell>
        <mxCell id="UpVqOsW7ISQ1hBNyode8-13" value="Đúng" style="text;html=1;align=center;verticalAlign=middle;resizable=0;points=[];autosize=1;" vertex="1" parent="WIyWlLk6GJQsqaUBKTNV-1">
          <mxGeometry x="360" y="360" width="40" height="20" as="geometry" />
        </mxCell>
        <mxCell id="UpVqOsW7ISQ1hBNyode8-82" style="edgeStyle=orthogonalEdgeStyle;rounded=0;orthogonalLoop=1;jettySize=auto;html=1;entryX=0.5;entryY=0;entryDx=0;entryDy=0;dashed=1;" edge="1" parent="WIyWlLk6GJQsqaUBKTNV-1" source="UpVqOsW7ISQ1hBNyode8-14" target="UpVqOsW7ISQ1hBNyode8-79">
          <mxGeometry relative="1" as="geometry" />
        </mxCell>
        <mxCell id="UpVqOsW7ISQ1hBNyode8-14" value="Chuyển định dạng dữ liệu" style="rounded=1;whiteSpace=wrap;html=1;fontSize=12;glass=0;strokeWidth=1;shadow=0;" vertex="1" parent="WIyWlLk6GJQsqaUBKTNV-1">
          <mxGeometry x="300" y="485" width="120" height="40" as="geometry" />
        </mxCell>
        <mxCell id="UpVqOsW7ISQ1hBNyode8-17" value="Sai" style="text;html=1;align=center;verticalAlign=middle;resizable=0;points=[];autosize=1;" vertex="1" parent="WIyWlLk6GJQsqaUBKTNV-1">
          <mxGeometry x="175" y="310" width="30" height="20" as="geometry" />
        </mxCell>
        <mxCell id="UpVqOsW7ISQ1hBNyode8-25" style="edgeStyle=orthogonalEdgeStyle;rounded=0;orthogonalLoop=1;jettySize=auto;html=1;entryX=0.5;entryY=0;entryDx=0;entryDy=0;" edge="1" parent="WIyWlLk6GJQsqaUBKTNV-1" source="UpVqOsW7ISQ1hBNyode8-18" target="UpVqOsW7ISQ1hBNyode8-23">
          <mxGeometry relative="1" as="geometry" />
        </mxCell>
        <mxCell id="UpVqOsW7ISQ1hBNyode8-110" style="edgeStyle=orthogonalEdgeStyle;rounded=0;orthogonalLoop=1;jettySize=auto;html=1;entryX=0.5;entryY=0;entryDx=0;entryDy=0;" edge="1" parent="WIyWlLk6GJQsqaUBKTNV-1" source="UpVqOsW7ISQ1hBNyode8-18" target="UpVqOsW7ISQ1hBNyode8-29">
          <mxGeometry relative="1" as="geometry" />
        </mxCell>
        <mxCell id="UpVqOsW7ISQ1hBNyode8-18" value="Hiển thị dữ liệu" style="rounded=1;whiteSpace=wrap;html=1;fontSize=12;glass=0;strokeWidth=1;shadow=0;" vertex="1" parent="WIyWlLk6GJQsqaUBKTNV-1">
          <mxGeometry x="300" y="630" width="120" height="40" as="geometry" />
        </mxCell>
        <mxCell id="UpVqOsW7ISQ1hBNyode8-20" value="Đúng" style="text;html=1;align=center;verticalAlign=middle;resizable=0;points=[];autosize=1;" vertex="1" parent="WIyWlLk6GJQsqaUBKTNV-1">
          <mxGeometry x="360" y="450" width="40" height="20" as="geometry" />
        </mxCell>
        <mxCell id="UpVqOsW7ISQ1hBNyode8-58" style="edgeStyle=orthogonalEdgeStyle;rounded=0;orthogonalLoop=1;jettySize=auto;html=1;entryX=0.5;entryY=0;entryDx=0;entryDy=0;" edge="1" parent="WIyWlLk6GJQsqaUBKTNV-1" source="UpVqOsW7ISQ1hBNyode8-21" target="UpVqOsW7ISQ1hBNyode8-45">
          <mxGeometry relative="1" as="geometry" />
        </mxCell>
        <mxCell id="UpVqOsW7ISQ1hBNyode8-21" value="Giảm mật độ điểm" style="rounded=1;whiteSpace=wrap;html=1;fontSize=12;glass=0;strokeWidth=1;shadow=0;" vertex="1" parent="WIyWlLk6GJQsqaUBKTNV-1">
          <mxGeometry x="40" y="790" width="120" height="40" as="geometry" />
        </mxCell>
        <mxCell id="UpVqOsW7ISQ1hBNyode8-26" style="edgeStyle=orthogonalEdgeStyle;rounded=0;orthogonalLoop=1;jettySize=auto;html=1;exitX=0.5;exitY=1;exitDx=0;exitDy=0;entryX=0.5;entryY=0;entryDx=0;entryDy=0;" edge="1" parent="WIyWlLk6GJQsqaUBKTNV-1" source="UpVqOsW7ISQ1hBNyode8-23" target="UpVqOsW7ISQ1hBNyode8-21">
          <mxGeometry relative="1" as="geometry" />
        </mxCell>
        <mxCell id="UpVqOsW7ISQ1hBNyode8-23" value="Chọn kích thước voxel" style="rounded=1;whiteSpace=wrap;html=1;fontSize=12;glass=0;strokeWidth=1;shadow=0;" vertex="1" parent="WIyWlLk6GJQsqaUBKTNV-1">
          <mxGeometry x="40" y="710" width="120" height="40" as="geometry" />
        </mxCell>
        <mxCell id="UpVqOsW7ISQ1hBNyode8-111" style="edgeStyle=orthogonalEdgeStyle;rounded=0;orthogonalLoop=1;jettySize=auto;html=1;entryX=0.5;entryY=0;entryDx=0;entryDy=0;" edge="1" parent="WIyWlLk6GJQsqaUBKTNV-1" source="UpVqOsW7ISQ1hBNyode8-29" target="UpVqOsW7ISQ1hBNyode8-36">
          <mxGeometry relative="1" as="geometry" />
        </mxCell>
        <mxCell id="UpVqOsW7ISQ1hBNyode8-29" value="Vẽ đa giác" style="rounded=1;whiteSpace=wrap;html=1;fontSize=12;glass=0;strokeWidth=1;shadow=0;" vertex="1" parent="WIyWlLk6GJQsqaUBKTNV-1">
          <mxGeometry x="300" y="710" width="120" height="40" as="geometry" />
        </mxCell>
        <mxCell id="UpVqOsW7ISQ1hBNyode8-112" style="edgeStyle=orthogonalEdgeStyle;rounded=0;orthogonalLoop=1;jettySize=auto;html=1;entryX=0.433;entryY=-0.025;entryDx=0;entryDy=0;entryPerimeter=0;" edge="1" parent="WIyWlLk6GJQsqaUBKTNV-1" source="UpVqOsW7ISQ1hBNyode8-36" target="UpVqOsW7ISQ1hBNyode8-39">
          <mxGeometry relative="1" as="geometry" />
        </mxCell>
        <mxCell id="UpVqOsW7ISQ1hBNyode8-113" style="edgeStyle=orthogonalEdgeStyle;rounded=0;orthogonalLoop=1;jettySize=auto;html=1;entryX=0.5;entryY=0;entryDx=0;entryDy=0;" edge="1" parent="WIyWlLk6GJQsqaUBKTNV-1" source="UpVqOsW7ISQ1hBNyode8-36" target="UpVqOsW7ISQ1hBNyode8-44">
          <mxGeometry relative="1" as="geometry" />
        </mxCell>
        <mxCell id="UpVqOsW7ISQ1hBNyode8-36" value="Cắt đa giác với dữ liệu đang có" style="rounded=1;whiteSpace=wrap;html=1;fontSize=12;glass=0;strokeWidth=1;shadow=0;" vertex="1" parent="WIyWlLk6GJQsqaUBKTNV-1">
          <mxGeometry x="300" y="790" width="120" height="40" as="geometry" />
        </mxCell>
        <mxCell id="UpVqOsW7ISQ1hBNyode8-39" value="Đám mây điểm bị cắt" style="rounded=1;whiteSpace=wrap;html=1;fontSize=12;glass=0;strokeWidth=1;shadow=0;" vertex="1" parent="WIyWlLk6GJQsqaUBKTNV-1">
          <mxGeometry x="230" y="880" width="120" height="40" as="geometry" />
        </mxCell>
        <mxCell id="UpVqOsW7ISQ1hBNyode8-44" value="Đám mây điểm cắt" style="rounded=1;whiteSpace=wrap;html=1;fontSize=12;glass=0;strokeWidth=1;shadow=0;" vertex="1" parent="WIyWlLk6GJQsqaUBKTNV-1">
          <mxGeometry x="375" y="880" width="120" height="40" as="geometry" />
        </mxCell>
        <mxCell id="UpVqOsW7ISQ1hBNyode8-45" value="Đám mây điểm giảm mật độ" style="rounded=1;whiteSpace=wrap;html=1;fontSize=12;glass=0;strokeWidth=1;shadow=0;" vertex="1" parent="WIyWlLk6GJQsqaUBKTNV-1">
          <mxGeometry x="40" y="880" width="120" height="40" as="geometry" />
        </mxCell>
        <mxCell id="UpVqOsW7ISQ1hBNyode8-114" style="edgeStyle=orthogonalEdgeStyle;rounded=0;orthogonalLoop=1;jettySize=auto;html=1;entryX=0.5;entryY=0;entryDx=0;entryDy=0;" edge="1" parent="WIyWlLk6GJQsqaUBKTNV-1" source="UpVqOsW7ISQ1hBNyode8-53" target="UpVqOsW7ISQ1hBNyode8-56">
          <mxGeometry relative="1" as="geometry" />
        </mxCell>
        <mxCell id="UpVqOsW7ISQ1hBNyode8-53" value="Tính địa hình" style="rounded=1;whiteSpace=wrap;html=1;fontSize=12;glass=0;strokeWidth=1;shadow=0;" vertex="1" parent="WIyWlLk6GJQsqaUBKTNV-1">
          <mxGeometry x="530" y="790" width="120" height="40" as="geometry" />
        </mxCell>
        <mxCell id="UpVqOsW7ISQ1hBNyode8-56" value="Cắt đa giác với dữ liệu đang có" style="rounded=1;whiteSpace=wrap;html=1;fontSize=12;glass=0;strokeWidth=1;shadow=0;" vertex="1" parent="WIyWlLk6GJQsqaUBKTNV-1">
          <mxGeometry x="530" y="880" width="120" height="40" as="geometry" />
        </mxCell>
        <mxCell id="UpVqOsW7ISQ1hBNyode8-81" style="edgeStyle=orthogonalEdgeStyle;rounded=0;orthogonalLoop=1;jettySize=auto;html=1;exitX=0.5;exitY=1;exitDx=0;exitDy=0;entryX=0.5;entryY=0;entryDx=0;entryDy=0;" edge="1" parent="WIyWlLk6GJQsqaUBKTNV-1" source="UpVqOsW7ISQ1hBNyode8-79" target="UpVqOsW7ISQ1hBNyode8-18">
          <mxGeometry relative="1" as="geometry" />
        </mxCell>
        <mxCell id="UpVqOsW7ISQ1hBNyode8-79" value="Xử lý màu" style="rounded=1;whiteSpace=wrap;html=1;fontSize=12;glass=0;strokeWidth=1;shadow=0;" vertex="1" parent="WIyWlLk6GJQsqaUBKTNV-1">
          <mxGeometry x="300" y="550" width="120" height="40" as="geometry" />
        </mxCell>
        <mxCell id="UpVqOsW7ISQ1hBNyode8-105" value="" style="rounded=0;whiteSpace=wrap;html=1;dashed=1;fillColor=none;" vertex="1" parent="WIyWlLk6GJQsqaUBKTNV-1">
          <mxGeometry x="170" y="190" width="340" height="420" as="geometry" />
        </mxCell>
      </root>
    </mxGraphModel>
  </diagram>
</mxfile>
